<svg xmlns="http://www.w3.org/2000/svg" xmlns:xlink="http://www.w3.org/1999/xlink" width="108" height="63.676" viewBox="0 0 108 63.676">
  <defs>
    <filter id="Vereinigungsmenge_9" x="0" y="0.072" width="44.059" height="63.603" filterUnits="userSpaceOnUse">
      <feOffset dy="3" input="SourceAlpha"/>
      <feGaussianBlur stdDeviation="3" result="blur"/>
      <feFlood flood-opacity="0.161"/>
      <feComposite operator="in" in2="blur"/>
      <feComposite in="SourceGraphic"/>
    </filter>
    <filter id="Vereinigungsmenge_10" x="31.934" y="0" width="44.059" height="63.676" filterUnits="userSpaceOnUse">
      <feOffset dy="3" input="SourceAlpha"/>
      <feGaussianBlur stdDeviation="3" result="blur-2"/>
      <feFlood flood-opacity="0.161"/>
      <feComposite operator="in" in2="blur-2"/>
      <feComposite in="SourceGraphic"/>
    </filter>
    <filter id="Vereinigungsmenge_11" x="63.869" y="0" width="44.131" height="63.676" filterUnits="userSpaceOnUse">
      <feOffset dy="3" input="SourceAlpha"/>
      <feGaussianBlur stdDeviation="3" result="blur-3"/>
      <feFlood flood-opacity="0.161"/>
      <feComposite operator="in" in2="blur-3"/>
      <feComposite in="SourceGraphic"/>
    </filter>
  </defs>
  <g id="ftp" transform="translate(9 6)">
    <g transform="matrix(1, 0, 0, 1, -9, -6)" filter="url(#Vereinigungsmenge_9)">
      <path id="Vereinigungsmenge_9-2" data-name="Vereinigungsmenge 9" d="M0,42.346V22.8a3.257,3.257,0,0,1,3.257-3.257H22.8a3.257,3.257,0,1,1,0,6.514H6.515V42.346a3.258,3.258,0,0,1-6.515,0ZM3.257,6.515A3.258,3.258,0,0,1,3.257,0H22.8a3.258,3.258,0,0,1,0,6.515Z" transform="translate(9 6.07)" fill="#3498db"/>
    </g>
    <g transform="matrix(1, 0, 0, 1, -9, -6)" filter="url(#Vereinigungsmenge_10)">
      <path id="Vereinigungsmenge_10-2" data-name="Vereinigungsmenge 10" d="M9.581,42.418V6.587H3.257a3.258,3.258,0,0,1,0-6.515h8.9a3.287,3.287,0,0,1,1.368,0H22.8a3.258,3.258,0,0,1,0,6.515H16.095V42.418a3.257,3.257,0,1,1-6.514,0Z" transform="translate(40.93 6)" fill="#3498db"/>
    </g>
    <g transform="matrix(1, 0, 0, 1, -9, -6)" filter="url(#Vereinigungsmenge_11)">
      <path id="Vereinigungsmenge_11-2" data-name="Vereinigungsmenge 11" d="M0,42.418V3.257A3.26,3.26,0,0,1,3.941.072H22.19a3.26,3.26,0,0,1,3.941,3.185V22.8a3.451,3.451,0,0,1-3.33,3.4H6.515V42.418a3.258,3.258,0,1,1-6.515,0ZM19.616,19.689V6.587H6.515v13.1Z" transform="translate(72.87 6)" fill="#3498db"/>
    </g>
  </g>
</svg>
