<svg xmlns="http://www.w3.org/2000/svg" xmlns:xlink="http://www.w3.org/1999/xlink" width="108" height="64.038" viewBox="0 0 108 64.038">
  <defs>
    <filter id="Vereinigungsmenge_19" x="63.869" y="0.042" width="44.131" height="63.676" filterUnits="userSpaceOnUse">
      <feOffset dy="3" input="SourceAlpha"/>
      <feGaussianBlur stdDeviation="3" result="blur"/>
      <feFlood flood-opacity="0.161"/>
      <feComposite operator="in" in2="blur"/>
      <feComposite in="SourceGraphic"/>
    </filter>
    <filter id="Vereinigungsmenge_20" x="31.934" y="0" width="44.137" height="63.862" filterUnits="userSpaceOnUse">
      <feOffset dy="3" input="SourceAlpha"/>
      <feGaussianBlur stdDeviation="3" result="blur-2"/>
      <feFlood flood-opacity="0.161"/>
      <feComposite operator="in" in2="blur-2"/>
      <feComposite in="SourceGraphic"/>
    </filter>
    <filter id="Vereinigungsmenge_21" x="0" y="0.038" width="44.5" height="64" filterUnits="userSpaceOnUse">
      <feOffset dy="3" input="SourceAlpha"/>
      <feGaussianBlur stdDeviation="3" result="blur-3"/>
      <feFlood flood-opacity="0.161"/>
      <feComposite operator="in" in2="blur-3"/>
      <feComposite in="SourceGraphic"/>
    </filter>
  </defs>
  <g id="rdp" transform="translate(9 6)">
    <g transform="matrix(1, 0, 0, 1, -9, -6)" filter="url(#Vereinigungsmenge_19)">
      <path id="Vereinigungsmenge_19-2" data-name="Vereinigungsmenge 19" d="M0,42.418V3.257A3.26,3.26,0,0,1,3.941.072H22.19a3.26,3.26,0,0,1,3.941,3.185V22.8a3.451,3.451,0,0,1-3.33,3.4H6.515V42.418a3.258,3.258,0,1,1-6.515,0ZM19.616,19.689V6.587H6.515v13.1Z" transform="translate(72.87 6.04)" fill="#3498db"/>
    </g>
    <g transform="matrix(1, 0, 0, 1, -9, -6)" filter="url(#Vereinigungsmenge_20)">
      <path id="Vereinigungsmenge_20-2" data-name="Vereinigungsmenge 20" d="M.193,43.568A3.252,3.252,0,0,1,0,42.46V3.3A3.251,3.251,0,0,1,1.164.8,3.255,3.255,0,0,1,4.148.112L23.722,5.357a3.258,3.258,0,0,1,2.409,3.349c0,.022,0,.045,0,.067v28.4a3.29,3.29,0,0,1-2.816,3.441L4.148,45.751A3.255,3.255,0,0,1,.193,43.568Zm6.322-5.2,13.1-3.511V11L6.515,7.49Z" transform="translate(40.93 6)" fill="#3498db"/>
    </g>
    <g transform="matrix(1, 0, 0, 1, -9, -6)" filter="url(#Vereinigungsmenge_21)">
      <path id="Vereinigungsmenge_21-2" data-name="Vereinigungsmenge 21" d="M2.5,46h0ZM0,42.418V3.253A3.257,3.257,0,0,1,3.257,0H16.8a3.248,3.248,0,0,1,2.289.94q.061.055.119.113L24.856,6.7a3.243,3.243,0,0,1,.768,1.214,3.248,3.248,0,0,1,.291,1.347V21.542a3.7,3.7,0,0,1-1.008,2.464L19.26,29.652a3.275,3.275,0,0,1-.489.4,3.265,3.265,0,0,1-.329.242l6.021,10.43a3.257,3.257,0,1,1-5.642,3.257l-8.492-14.71A3.244,3.244,0,0,1,9.9,27.91a3.3,3.3,0,0,1-.019-.357A3.257,3.257,0,0,1,13.14,24.3H15.4l4-4V10.453L15.458,6.512H6.515V42.418a3.258,3.258,0,1,1-6.515,0ZM26.5,10.5v0Z" transform="translate(9 6.04)" fill="#3498db"/>
    </g>
  </g>
</svg>
