<svg xmlns="http://www.w3.org/2000/svg" xmlns:xlink="http://www.w3.org/1999/xlink" width="139.867" height="63.616" viewBox="0 0 139.867 63.616">
  <defs>
    <filter id="Vereinigungsmenge_6" x="32" y="0" width="44.021" height="63.536" filterUnits="userSpaceOnUse">
      <feOffset dy="3" input="SourceAlpha"/>
      <feGaussianBlur stdDeviation="3" result="blur"/>
      <feFlood flood-opacity="0.161"/>
      <feComposite operator="in" in2="blur"/>
      <feComposite in="SourceGraphic"/>
    </filter>
    <filter id="Vereinigungsmenge_7" x="63.887" y="0" width="44.021" height="63.609" filterUnits="userSpaceOnUse">
      <feOffset dy="3" input="SourceAlpha"/>
      <feGaussianBlur stdDeviation="3" result="blur-2"/>
      <feFlood flood-opacity="0.161"/>
      <feComposite operator="in" in2="blur-2"/>
      <feComposite in="SourceGraphic"/>
    </filter>
    <filter id="Vereinigungsmenge_8" x="95.774" y="0" width="44.093" height="63.609" filterUnits="userSpaceOnUse">
      <feOffset dy="3" input="SourceAlpha"/>
      <feGaussianBlur stdDeviation="3" result="blur-3"/>
      <feFlood flood-opacity="0.161"/>
      <feComposite operator="in" in2="blur-3"/>
      <feComposite in="SourceGraphic"/>
    </filter>
    <filter id="Vereinigungsmenge_22" x="0" y="0" width="44.021" height="63.616" filterUnits="userSpaceOnUse">
      <feOffset dy="3" input="SourceAlpha"/>
      <feGaussianBlur stdDeviation="3" result="blur-4"/>
      <feFlood flood-opacity="0.161"/>
      <feComposite operator="in" in2="blur-4"/>
      <feComposite in="SourceGraphic"/>
    </filter>
  </defs>
  <g id="SFTP" transform="translate(17.313 5.928)">
    <g transform="matrix(1, 0, 0, 1, -17.31, -5.93)" filter="url(#Vereinigungsmenge_6)">
      <path id="Vereinigungsmenge_6-2" data-name="Vereinigungsmenge 6" d="M23.687,42.283V22.768a3.253,3.253,0,0,1,3.253-3.253H46.455a3.253,3.253,0,1,1,0,6.505H30.192V42.283a3.253,3.253,0,0,1-6.505,0ZM27.253,6.505a3.253,3.253,0,0,1,0-6.505h19.2a3.253,3.253,0,1,1,0,6.505Z" transform="translate(17.31 6)" fill="#3498db"/>
    </g>
    <g transform="matrix(1, 0, 0, 1, -17.31, -5.93)" filter="url(#Vereinigungsmenge_7)">
      <path id="Vereinigungsmenge_7-2" data-name="Vereinigungsmenge 7" d="M9.566,42.429V6.577H3.253a3.253,3.253,0,1,1,0-6.505H22.768a3.253,3.253,0,1,1,0,6.505h-6.7V42.429a3.253,3.253,0,1,1-6.505,0Z" transform="translate(72.89 5.93)" fill="#3498db"/>
    </g>
    <g transform="matrix(1, 0, 0, 1, -17.31, -5.93)" filter="url(#Vereinigungsmenge_8)">
      <path id="Vereinigungsmenge_8-2" data-name="Vereinigungsmenge 8" d="M0,42.429V3.326H0A3.253,3.253,0,0,1,3.253.072H22.846a3.252,3.252,0,0,1,3.247,3.253V22.841a3.377,3.377,0,0,1-3.325,3.324H6.505V42.429a3.253,3.253,0,1,1-6.505,0ZM19.588,19.66V6.577H6.505V19.66Z" transform="translate(104.77 5.93)" fill="#3498db"/>
    </g>
    <g transform="matrix(1, 0, 0, 1, -17.31, -5.93)" filter="url(#Vereinigungsmenge_22)">
      <path id="Vereinigungsmenge_22-2" data-name="Vereinigungsmenge 22" d="M26.941,45.616a3.252,3.252,0,1,1,0-6.5H43.2V26.021H26.94a3.253,3.253,0,0,1-3.253-3.253s0-.007,0-.01,0-.007,0-.01V3.253A3.252,3.252,0,0,1,26.942,0h19.2a3.253,3.253,0,0,1,0,6.505H30.192v13.01H46.28q.086,0,.172,0a3.258,3.258,0,0,1,3.255,3.257c0,.044,0,.089,0,.133v19.33c0,.044,0,.088,0,.133a3.252,3.252,0,0,1-3.253,3.252Z" transform="translate(-14.69 6)" fill="#3498db"/>
    </g>
  </g>
</svg>
