<svg xmlns="http://www.w3.org/2000/svg" xmlns:xlink="http://www.w3.org/1999/xlink" width="108" height="63.99" viewBox="0 0 108 63.99">
  <defs>
    <filter id="Vereinigungsmenge_16" x="0" y="0.249" width="44.232" height="63.373" filterUnits="userSpaceOnUse">
      <feOffset dy="3" input="SourceAlpha"/>
      <feGaussianBlur stdDeviation="3" result="blur"/>
      <feFlood flood-opacity="0.161"/>
      <feComposite operator="in" in2="blur"/>
      <feComposite in="SourceGraphic"/>
    </filter>
    <filter id="Vereinigungsmenge_17" x="63.957" y="0.196" width="44.043" height="63.794" filterUnits="userSpaceOnUse">
      <feOffset dy="3" input="SourceAlpha"/>
      <feGaussianBlur stdDeviation="3" result="blur-2"/>
      <feFlood flood-opacity="0.161"/>
      <feComposite operator="in" in2="blur-2"/>
      <feComposite in="SourceGraphic"/>
    </filter>
    <filter id="Vereinigungsmenge_18" x="30.673" y="0" width="44.145" height="63.845" filterUnits="userSpaceOnUse">
      <feOffset dy="3" input="SourceAlpha"/>
      <feGaussianBlur stdDeviation="3" result="blur-3"/>
      <feFlood flood-opacity="0.161"/>
      <feComposite operator="in" in2="blur-3"/>
      <feComposite in="SourceGraphic"/>
    </filter>
  </defs>
  <g id="vnc" transform="translate(9 6)">
    <g transform="matrix(1, 0, 0, 1, -9, -6)" filter="url(#Vereinigungsmenge_16)">
      <path id="Vereinigungsmenge_16-2" data-name="Vereinigungsmenge 16" d="M13.116,45.368A3.257,3.257,0,0,1,9.787,42.9L.1,4.044A3.256,3.256,0,1,1,6.415,2.469l6.7,26.876,6.7-26.876a3.255,3.255,0,1,1,6.317,1.575L16.446,42.9a3.257,3.257,0,0,1-3.157,2.469Q13.2,45.373,13.116,45.368Z" transform="translate(9 6.25)" fill="#3498db"/>
    </g>
    <g transform="matrix(1, 0, 0, 1, -9, -6)" filter="url(#Vereinigungsmenge_17)">
      <path id="Vereinigungsmenge_17-2" data-name="Vereinigungsmenge 17" d="M3.255,45.794A3.256,3.256,0,0,1,0,42.538c0-.024,0-.048,0-.072s0-.048,0-.072V3.255A3.258,3.258,0,0,1,3.939.072H22.788a3.256,3.256,0,0,1,0,6.512H6.511v32.7H22.788a3.256,3.256,0,0,1,0,6.511Z" transform="translate(72.96 6.2)" fill="#3498db"/>
    </g>
    <g transform="matrix(1, 0, 0, 1, -9, -6)" filter="url(#Vereinigungsmenge_18)">
      <path id="Vereinigungsmenge_18-2" data-name="Vereinigungsmenge 18" d="M19.686,43.313,6.511,16.6V42.59A3.255,3.255,0,0,1,0,42.59V3.452A3.254,3.254,0,0,1,1.665.61,3.257,3.257,0,0,1,6.482,1.816L19.606,28.429V3.452a3.255,3.255,0,0,1,6.511,0V42.014a3.282,3.282,0,0,1-6.43,1.3Z" transform="translate(39.67 6)" fill="#3498db"/>
    </g>
  </g>
</svg>
