<svg xmlns="http://www.w3.org/2000/svg" width="250.824" height="200" viewBox="0 0 250.824 200"><defs><style>.a{fill:#2980b9;}</style></defs><path class="a" d="M200.709,74.93l-3.214,5.6a4.844,4.844,0,0,1-5.918,2.117A43.311,43.311,0,0,1,179,75.361a4.868,4.868,0,0,1-1.1-6.154l3.214-5.6a33.835,33.835,0,0,1-6.232-10.739h-6.467a4.838,4.838,0,0,1-4.782-4.037,44.157,44.157,0,0,1,0-14.541,4.873,4.873,0,0,1,4.782-4.076h6.467a33.835,33.835,0,0,1,6.232-10.739l-3.214-5.6A4.821,4.821,0,0,1,179,7.711,43.829,43.829,0,0,1,191.577.421,4.844,4.844,0,0,1,197.5,2.538l3.214,5.6a34.829,34.829,0,0,1,12.425,0l3.214-5.6A4.844,4.844,0,0,1,222.266.421a43.311,43.311,0,0,1,12.581,7.29,4.868,4.868,0,0,1,1.1,6.154l-3.214,5.6a33.835,33.835,0,0,1,6.232,10.739h6.467a4.838,4.838,0,0,1,4.782,4.037,44.157,44.157,0,0,1,0,14.541,4.873,4.873,0,0,1-4.782,4.076h-6.467A33.834,33.834,0,0,1,232.731,63.6l3.214,5.6a4.821,4.821,0,0,1-1.1,6.154,43.83,43.83,0,0,1-12.581,7.29,4.844,4.844,0,0,1-5.918-2.117l-3.214-5.6A34.828,34.828,0,0,1,200.709,74.93Zm-4.115-23.046c15.09,11.6,32.3-5.6,20.695-20.695C202.2,19.548,184.992,36.794,196.594,51.883ZM151.4,112.2l13.209,6.585a9.425,9.425,0,0,1,4.115,11.406c-3.488,9.485-10.347,18.186-16.7,25.79a9.37,9.37,0,0,1-11.876,2.077l-11.406-6.585A67.329,67.329,0,0,1,107.231,163.9v13.169a9.38,9.38,0,0,1-7.721,9.25,88.141,88.141,0,0,1-29.749,0,9.416,9.416,0,0,1-7.839-9.25V163.9A68.065,68.065,0,0,1,40.4,151.477L29,158.022a9.378,9.378,0,0,1-11.876-2.077c-6.35-7.6-13.052-16.3-16.54-25.751A9.458,9.458,0,0,1,4.7,118.789L17.749,112.2a67.9,67.9,0,0,1,0-24.849L4.7,80.731A9.346,9.346,0,0,1,.582,69.364c3.488-9.485,10.191-18.186,16.54-25.79A9.37,9.37,0,0,1,29,41.5L40.4,48.082A67.329,67.329,0,0,1,61.922,35.657V22.448A9.335,9.335,0,0,1,69.6,13.238,89.385,89.385,0,0,1,99.392,13.2a9.416,9.416,0,0,1,7.839,9.25V35.618a68.065,68.065,0,0,1,21.518,12.425l11.406-6.585a9.378,9.378,0,0,1,11.876,2.077c6.35,7.6,13.013,16.3,16.5,25.79a9.368,9.368,0,0,1-3.919,11.406L151.4,87.315A68.113,68.113,0,0,1,151.4,112.2Zm-46.093,8.27c23.2-30.18-11.249-64.632-41.429-41.429C40.678,109.225,75.13,143.677,105.31,120.474Zm95.4,71.608-3.214,5.6a4.844,4.844,0,0,1-5.918,2.117A43.311,43.311,0,0,1,179,192.513a4.868,4.868,0,0,1-1.1-6.154l3.214-5.6a33.835,33.835,0,0,1-6.232-10.739h-6.467a4.838,4.838,0,0,1-4.782-4.037,44.157,44.157,0,0,1,0-14.541,4.873,4.873,0,0,1,4.782-4.076h6.467a33.835,33.835,0,0,1,6.232-10.739l-3.214-5.6a4.821,4.821,0,0,1,1.1-6.154,43.829,43.829,0,0,1,12.581-7.29,4.844,4.844,0,0,1,5.918,2.117l3.214,5.6a34.828,34.828,0,0,1,12.425,0l3.214-5.6a4.844,4.844,0,0,1,5.918-2.117,43.31,43.31,0,0,1,12.581,7.29,4.868,4.868,0,0,1,1.1,6.154l-3.214,5.6a33.835,33.835,0,0,1,6.232,10.739h6.467a4.838,4.838,0,0,1,4.782,4.037,44.157,44.157,0,0,1,0,14.541,4.873,4.873,0,0,1-4.782,4.076h-6.467a33.834,33.834,0,0,1-6.232,10.739l3.214,5.6a4.821,4.821,0,0,1-1.1,6.154,43.829,43.829,0,0,1-12.581,7.29,4.844,4.844,0,0,1-5.918-2.117l-3.214-5.6A34.828,34.828,0,0,1,200.709,192.082ZM196.594,169c15.09,11.6,32.3-5.6,20.695-20.695-15.09-11.6-32.3,5.6-20.695,20.695Z" transform="translate(0.009 -0.112)"/></svg>