<svg id="server_list" xmlns="http://www.w3.org/2000/svg" width="153.846" height="200" viewBox="0 0 153.846 200">
  <g id="Pfad_4" data-name="Pfad 4" transform="translate(0 0)" fill="#2980b9" stroke-linecap="square">
    <path d="M 125.8741455078125 192.5 L 27.97204780578613 192.5 C 16.68371391296387 192.5 7.500013828277588 183.3162994384766 7.500013828277588 172.0279693603516 L 7.500013828277588 27.97203254699707 C 7.500013828277588 16.68370056152344 16.68371391296387 7.5 27.97204780578613 7.5 L 125.8741455078125 7.5 C 137.1624755859375 7.5 146.3461761474609 16.68370056152344 146.3461761474609 27.97203254699707 L 146.3461761474609 172.0279693603516 C 146.3461761474609 183.3162994384766 137.1624755859375 192.5 125.8741455078125 192.5 Z" stroke="none"/>
    <path d="M 27.97203826904297 15 C 20.81924438476563 15 15 20.81924438476563 15 27.9720458984375 L 15 172.0279541015625 C 15 179.1807556152344 20.81924438476563 185 27.97203826904297 185 L 125.8741226196289 185 C 133.0269165039063 185 138.8461608886719 179.1807556152344 138.8461608886719 172.0279541015625 L 138.8461608886719 27.9720458984375 C 138.8461608886719 20.81924438476563 133.0269165039063 15 125.8741226196289 15 L 27.97203826904297 15 M 27.97203826904297 0 L 125.8741226196289 0 C 141.3226623535156 0 153.8461608886719 12.52349853515625 153.8461608886719 27.9720458984375 L 153.8461608886719 172.0279541015625 C 153.8461608886719 187.4765014648438 141.3226623535156 200 125.8741226196289 200 L 27.97203826904297 200 C 12.52349853515625 200 0 187.4765014648438 0 172.0279541015625 L 0 27.9720458984375 C 0 12.52349853515625 12.52349853515625 0 27.97203826904297 0 Z" stroke="none" fill="#2980b9"/>
  </g>
  <path id="Pfad_3" data-name="Pfad 3" d="M6.993,0h97.9a6.993,6.993,0,0,1,6.993,6.993V151.049a6.993,6.993,0,0,1-6.993,6.993H6.993A6.993,6.993,0,0,1,0,151.049V6.993A6.993,6.993,0,0,1,6.993,0Z" transform="translate(20.979 20.979)" fill="#d2e7f6"/>
  <path id="Pfad_9" data-name="Pfad 9" d="M10.49,0H69.231a10.49,10.49,0,0,1,0,20.979H10.49A10.49,10.49,0,0,1,10.49,0Z" transform="translate(37.762 37.762)" fill="#2980b9"/>
  <path id="Pfad_8" data-name="Pfad 8" d="M10.49,0H69.231a10.49,10.49,0,0,1,0,20.979H10.49A10.49,10.49,0,0,1,10.49,0Z" transform="translate(37.762 72.727)" fill="#2980b9"/>
  <path id="Pfad_7" data-name="Pfad 7" d="M10.49,0H30.07a10.49,10.49,0,0,1,0,20.979H10.49A10.49,10.49,0,0,1,10.49,0Z" transform="translate(37.762 107.692)" fill="#2980b9"/>
  <path id="Pfad_6" data-name="Pfad 6" d="M10.49,0A10.49,10.49,0,1,1,0,10.49,10.49,10.49,0,0,1,10.49,0Z" transform="translate(96.503 107.692)" fill="#2980b9"/>
  <path id="Pfad_5" data-name="Pfad 5" d="M10.49,0H69.231a10.49,10.49,0,0,1,0,20.979H10.49A10.49,10.49,0,0,1,10.49,0Z" transform="translate(37.762 142.657)" fill="#2980b9"/>
</svg>
