<svg xmlns="http://www.w3.org/2000/svg" xmlns:xlink="http://www.w3.org/1999/xlink" width="1447.38" height="368.13" viewBox="0 0 1447.38 368.13">
  <defs>
    <filter id="Vereinigungsmenge_6" x="0" y="0.13" width="218" height="368" filterUnits="userSpaceOnUse">
      <feOffset dy="3" input="SourceAlpha"/>
      <feGaussianBlur stdDeviation="3" result="blur"/>
      <feFlood flood-opacity="0.161"/>
      <feComposite operator="in" in2="blur"/>
      <feComposite in="SourceGraphic"/>
    </filter>
    <filter id="Rechteck_4" x="290" y="0.13" width="68" height="368" filterUnits="userSpaceOnUse">
      <feOffset dy="3" input="SourceAlpha"/>
      <feGaussianBlur stdDeviation="3" result="blur-2"/>
      <feFlood flood-opacity="0.161"/>
      <feComposite operator="in" in2="blur-2"/>
      <feComposite in="SourceGraphic"/>
    </filter>
    <filter id="Vereinigungsmenge_4" x="430" y="0.13" width="218" height="367" filterUnits="userSpaceOnUse">
      <feOffset dy="3" input="SourceAlpha"/>
      <feGaussianBlur stdDeviation="3" result="blur-3"/>
      <feFlood flood-opacity="0.161"/>
      <feComposite operator="in" in2="blur-3"/>
      <feComposite in="SourceGraphic"/>
    </filter>
    <filter id="Vereinigungsmenge_3" x="695" y="0.13" width="218" height="367" filterUnits="userSpaceOnUse">
      <feOffset dy="3" input="SourceAlpha"/>
      <feGaussianBlur stdDeviation="3" result="blur-4"/>
      <feFlood flood-opacity="0.161"/>
      <feComposite operator="in" in2="blur-4"/>
      <feComposite in="SourceGraphic"/>
    </filter>
    <filter id="Vereinigungsmenge_5" x="960" y="0.13" width="218" height="368" filterUnits="userSpaceOnUse">
      <feOffset dy="3" input="SourceAlpha"/>
      <feGaussianBlur stdDeviation="3" result="blur-5"/>
      <feFlood flood-opacity="0.161"/>
      <feComposite operator="in" in2="blur-5"/>
      <feComposite in="SourceGraphic"/>
    </filter>
    <filter id="Vereinigungsmenge_2" x="1169.984" y="0" width="277.395" height="367.13" filterUnits="userSpaceOnUse">
      <feOffset dy="3" input="SourceAlpha"/>
      <feGaussianBlur stdDeviation="3" result="blur-6"/>
      <feFlood flood-opacity="0.161"/>
      <feComposite operator="in" in2="blur-6"/>
      <feComposite in="SourceGraphic"/>
    </filter>
  </defs>
  <g id="filely_logo" transform="translate(-214 -209.87)">
    <g transform="matrix(1, 0, 0, 1, 214, 209.87)" filter="url(#Vereinigungsmenge_6)">
      <path id="Vereinigungsmenge_6-2" data-name="Vereinigungsmenge 6" d="M-17,171.053v-150a25,25,0,0,1,25-25H158a25,25,0,0,1,0,50H33v125a25,25,0,0,1-50,0Zm25-275a25,25,0,0,1-25-25,25,25,0,0,1,25-25H158a25,25,0,0,1,25,25,25,25,0,0,1-25,25Z" transform="translate(26 160.08)" fill="#fff"/>
    </g>
    <g transform="matrix(1, 0, 0, 1, 214, 209.87)" filter="url(#Rechteck_4)">
      <rect id="Rechteck_4-2" data-name="Rechteck 4" width="50" height="350" rx="25" transform="translate(299 6.13)" fill="#fff"/>
    </g>
    <g transform="matrix(1, 0, 0, 1, 214, 209.87)" filter="url(#Vereinigungsmenge_4)">
      <path id="Vereinigungsmenge_4-2" data-name="Vereinigungsmenge 4" d="M8,195.053a25,25,0,0,1-25-25v-299a25,25,0,0,1,25-25,25,25,0,0,1,25,25v274H158a25,25,0,0,1,0,50Z" transform="translate(456 160.08)" fill="#fff"/>
    </g>
    <g transform="matrix(1, 0, 0, 1, 214, 209.87)" filter="url(#Vereinigungsmenge_3)">
      <path id="Vereinigungsmenge_3-2" data-name="Vereinigungsmenge 3" d="M8,195.053a25,25,0,1,1,0-50H158a25,25,0,0,1,0,50Zm0-149a25,25,0,1,1,0-50H158a25,25,0,0,1,0,50Zm0-150a25,25,0,0,1-25-25,25,25,0,0,1,25-25H158a25,25,0,0,1,25,25,25,25,0,0,1-25,25Z" transform="translate(721 160.08)" fill="#fff"/>
    </g>
    <g transform="matrix(1, 0, 0, 1, 214, 209.87)" filter="url(#Vereinigungsmenge_5)">
      <path id="Vereinigungsmenge_5-2" data-name="Vereinigungsmenge 5" d="M8,196.053a25,25,0,0,1-25-25v-300a25,25,0,0,1,25-25,25,25,0,0,1,25,25v275H158a25,25,0,0,1,0,50Z" transform="translate(986 160.08)" fill="#fff"/>
    </g>
    <g transform="matrix(1, 0, 0, 1, 214, 209.87)" filter="url(#Vereinigungsmenge_2)">
      <path id="Vereinigungsmenge_2-2" data-name="Vereinigungsmenge 2" d="M-2.168,181V39.729L-102.66-103.789a25,25,0,0,1,6.139-34.818,25,25,0,0,1,34.818,6.14L22.514-12.194,106.73-132.467a25,25,0,0,1,34.818-6.14,25,25,0,0,1,6.14,34.818L47.832,38.82V181a25,25,0,0,1-50,0Z" transform="translate(1286.17 149.13)" fill="#fff"/>
    </g>
  </g>
</svg>
